<svg width="54" height="49" viewBox="0 0 54 49" fill="none" xmlns="http://www.w3.org/2000/svg">
<path d="M33.4984 26.7L53.9984 0H50.9984L30.3984 26.7H33.4984Z" fill="#062017"/>
<path d="M41.3 38.6C42.2 41.2 44.2 48.1 45 48.6H39.9C39.9 48 39.8 47.4 39.7 46.8C39.5 46 37.6 40.1 37.6 40.1H29.5L28.2 41.9C28.2 41.9 29.7 46.7 29.8 46.9C30 47.3 30.7 48.6 30.7 48.6H25.8C25.8 48.6 25.7 47.9 25.6 47.6C25.6 47.4 25.1 46 25.1 46C25.1 46 24 47.2 23.7 47.8C23.4 48.4 23.3 48.7 23.3 48.7H19.5C19.5 48.7 19.4 48 19.3 47.7C19.3 47.5 18.8 46 18.8 46C18.8 46 17.7 47.3 17.4 47.9C17.1 48.5 17 48.8 17 48.8H13.2C13.2 48.8 14.3 47.8 14.6 47.3C15.2 46.6 17.6 43.5 17.6 43.5L16.7 40.2H8.7C8.7 40.2 4.1 46.2 3.9 46.4C3.7 46.6 2.4 48.5 2.4 48.7H0V47.2L0.1 47.1C0.2 47 3.6 42.8 6.7 38.7C9.5 35.1 12.1 31.5 12.4 31.2C13 30.4 13.8 28.6 13.8 28.6H17.9C17.9 28.6 18 30.2 18.1 30.6C18.2 30.9 20.7 39.2 20.8 39.3L22.2 37.5L19.8 30.1C19.8 30.1 19.2 28.7 19.1 28.5H23.9C23.9 28.9 23.9 29.4 24.1 29.8C24.3 30.4 25.3 34.2 25.3 34.2C25.3 34.2 28.6 30.1 28.8 29.8C29 29.4 29.2 29 29.2 28.6H33.2C33.2 28.6 32.5 29.1 31.2 30.8C30.8 31.4 26.5 36.8 26.5 36.8C26.5 36.8 26.9 38.1 27.1 38.7C27.1 38.9 27.2 39 27.2 39C27.2 39 27.3 38.9 27.5 38.7C28.6 37.3 33.6 30.7 33.9 30.2C34.1 29.7 34.5 29.2 34.7 28.7H38.6C38.6 28.7 38.7 29.9 38.8 30.2L41.3 38.6ZM35.3 32.4C34.7 33.6 31.3 37.8 31.3 37.8H36.7C36.7 37.8 35.7 34.6 35.5 33.9C35.4 33.3 35.3 32.9 35.3 32.4C35.3 32.3 35.3 32.2 35.3 32.4ZM14.5 32.4C13.9 33.6 10.5 37.8 10.5 37.8H16C16 37.8 15 34.6 14.8 33.9C14.6 33.3 14.6 32.9 14.5 32.4C14.6 32.3 14.6 32.2 14.5 32.4ZM22.7 44.9L24.2 42.9C24.1 42.8 23.2 40.2 23.2 40.2L21.8 42.1L22.7 44.9Z" fill="#062017"/>
</svg>
