<svg xmlns="http://www.w3.org/2000/svg" width="895.2757" height="167.4911" viewBox="0 0 895.2757 167.4911"><g id="Layer_2" data-name="Layer 2"><g id="Layer_1-2" data-name="Layer 1"><path d="M49.7271,0A10.5326,10.5326,0,0,0,51.029.2137,57.3559,57.3559,0,0,1,68.3463,3.3862,30.4554,30.4554,0,0,1,79.222,9.84a19.8294,19.8294,0,0,1,6.2829,12.7427A14.836,14.836,0,0,1,83.5892,31.5a31.87,31.87,0,0,1-9.4033,10.1433c-.2814.206-.5651.4087-.8445.6173a1.1855,1.1855,0,0,0-.1449.218c.4.2475.792.51,1.202.7407A46.5907,46.5907,0,0,1,83.86,50.0416a30.5042,30.5042,0,0,1,8.7038,14.4456c1.602,6.1006.6883,11.975-1.94,17.6494-2.5136,5.4264-6.8,9.0349-11.9408,11.7747a51.2862,51.2862,0,0,1-15.91,5.0614,101.5583,101.5583,0,0,1-16.87,1.2035q-21.9735-.0358-43.947-.008H0c.7268-.3656,1.164-.5843,1.6-.8052a21.2417,21.2417,0,0,0,5.6862-4.1015,11.3072,11.3072,0,0,0,3.3675-8.2234q-.0252-36.8976.0036-73.795A11.3948,11.3948,0,0,0,5.8711,3.5705C4.2434,2.363,2.4116,1.4306.5394.2933H5.68q.3,0,.6-.0009Q21.8029.2551,37.3255.2084A12.426,12.426,0,0,0,38.9271,0ZM31.7683,95.9328c.477.0263.7723.0565,1.0677.0568,3.3983.0034,6.7984.07,10.1947-.0143a50.5929,50.5929,0,0,0,14.0261-2.0544A21.6757,21.6757,0,0,0,70.9717,81.43a19.3356,19.3356,0,0,0,1.3155-10.5661,26.8983,26.8983,0,0,0-5.4365-13.4265,35.24,35.24,0,0,0-13.46-10.005c-2.8081-1.2752-5.7577-2.2418-8.6563-3.3126-.68-.2513-1.3345-.45-1.4544-1.26.2-.9128.9163-.8075,1.5532-.8627a27.116,27.116,0,0,0,16.7919-7.4089,15.2413,15.2413,0,0,0,4.7528-7.99A18.2343,18.2343,0,0,0,66.2305,19.6,16.2592,16.2592,0,0,0,58.7554,8.1734,25.8224,25.8224,0,0,0,46.0863,4.51C41.7,4.2817,37.2988,4.343,32.904,4.29a8.5327,8.5327,0,0,0-1.1357.1349Z"/><path d="M505.6918,100.7307h-41.05c.7327-.4174,1.2374-.7122,1.7487-.995a21.6449,21.6449,0,0,0,5.871-4.598,11.0193,11.0193,0,0,0,2.8605-7.5256q-.0088-17.3238-.0056-34.6477c0-.3454-.0454-.6908-.0686-1.02-1.14-.3264-40.8281-.39-42.5521-.049V53.62c0,11.0993.0905,22.2-.0462,33.2972a11.93,11.93,0,0,0,4.713,10.0209,53.9875,53.9875,0,0,0,4.7445,3.1146c.3281.21.692.3649,1.26.6594H401.3282c1.1849-.705,2.3019-1.3236,3.3709-2.0162a18.5957,18.5957,0,0,0,4.6682-4.1832,10.2857,10.2857,0,0,0,2.2664-6.509q-.0393-37.1975-.0014-74.395a11.22,11.22,0,0,0-4.2614-8.8654,21.5246,21.5246,0,0,0-5.9626-3.4467h41.0665c-.8091.3976-1.5339.6842-2.1854,1.0888a34.2486,34.2486,0,0,0-3.7284,2.49,11.1956,11.1956,0,0,0-4.3249,9.0031q-.003,14.3241.0017,28.6481c0,.2964.0337.5929.0611,1.0439a11.6668,11.6668,0,0,0,1.2842.14q20.0986.0111,40.1973.0012c.3883,0,.7766-.0721,1.2695-.1209.0252-.5518.0665-1.0375.0667-1.5231.0038-9.1994-.0314-18.399.0184-27.5981a11.5806,11.5806,0,0,0-4.7707-9.8453c-1.66-1.25-3.4988-2.2636-5.1952-3.3448h40.7262c-.8341.4118-1.4925.7252-2.14,1.0588a16.5424,16.5424,0,0,0-5.9023,4.75,10.2179,10.2179,0,0,0-2.1236,6.264q.0183,37.6472,0,75.2944c-.002,3.5948,1.7243,6.2728,4.3089,8.5307A26.5523,26.5523,0,0,0,505.6918,100.7307Z"/><path d="M202.8845,1.2583h41.8542c-.716.3449-1.1551.5563-1.594.768a17.4591,17.4591,0,0,0-5.4417,3.91,10.7929,10.7929,0,0,0-2.9722,7.6192c.027,2.8994.0057,5.7993.0057,8.699,0,10.499.0212,20.998-.0091,31.4969-.0149,5.1462-.2187,10.2932-.1656,15.438A50.3648,50.3648,0,0,0,236.33,83.5649a27.3229,27.3229,0,0,0,1.9951,4.8258,14.8029,14.8029,0,0,0,8.9133,7.3328,29.4006,29.4006,0,0,0,16.4118.3288c5.66-1.4546,9.3561-5.1166,11.39-10.5362a37.8351,37.8351,0,0,0,2.08-10.09c.6371-7.2861.2169-14.5853.2137-21.8791-.0007-1.5473-.1094-3.0946-.1107-4.642-.01-11.6489-.0616-23.2981.0252-34.9463a11.19,11.19,0,0,0-4.711-9.5315c-1.6144-1.2174-3.445-2.1481-5.114-3.1692h41.95c-1.0922.5363-1.9941.9433-2.8624,1.4123A14.9425,14.9425,0,0,0,300.8518,7.69a9.74,9.74,0,0,0-1.6209,5.37q.0162,22.6477-.0051,45.2955c-.0085,4.4442-.0108,8.8963-.2686,13.33a34.9557,34.9557,0,0,1-3.6976,14.702,23.6258,23.6258,0,0,1-11.1411,10.29,47.0956,47.0956,0,0,1-13.4969,3.7974,107.58,107.58,0,0,1-20.49.8159,65.4705,65.4705,0,0,1-17.8329-2.9029,27.4283,27.4283,0,0,1-12.4479-7.7326,25.9278,25.9278,0,0,1-5.6753-12.0608,59.8833,59.8833,0,0,1-1.2035-12.3561c-.011-17.1477-.0607-34.2962.097-51.4426.05-5.4254-2.312-9.1368-6.7771-11.7861C205.2687,2.4033,204.1743,1.9168,202.8845,1.2583Z"/><path d="M661.0481,51.1949a6.2687,6.2687,0,0,0,.4109.7609c4.954,6.8362,9.8077,13.7482,14.9012,20.4789a93.8028,93.8028,0,0,0,20.1711,19.33c4.7778,3.4487,9.6979,6.7,14.5533,10.0415a3.7485,3.7485,0,0,1,1.1422,1.0921c-.787-.1091-1.5771-.2-2.3606-.33-5.6127-.9336-11.2478-1.7541-16.8307-2.8414-9.28-1.807-17.3112-6.239-24.6127-12.1216a99.4838,99.4838,0,0,1-17.4992-18.6369c-3.0552-4.1385-5.95-8.3952-8.9192-12.5975q-2.162-3.06-4.329-6.1173c-.28-.3969-.5427-.8062-.89-1.3236,1.8176,0,3.4629.0916,5.0951-.0155,8.2057-.5381,14.95-3.7847,19.4524-10.8952a21.8653,21.8653,0,0,0,3.217-13.7538,26.0115,26.0115,0,0,0-1.35-7.0326c-1.97-5.3674-5.9053-8.6275-11.2231-10.4071a33.3086,33.3086,0,0,0-9.57-1.6083c-4.0947-.13-8.1954-.0754-12.2934-.0952a4.0224,4.0224,0,0,0-.606.1166c-.0312.4963-.0922,1.025-.0931,1.5538q-.0118,6.3737-.0046,12.7473c0,22.6452.0422,45.2906-.0353,67.9356a12.4472,12.4472,0,0,0,5.3442,10.6424c1.4283,1.0624,3.0072,1.9224,4.4892,2.8566-1.0428.2726-38.8083.3121-40.3918-.0038l1.5285-.8137a19.7953,19.7953,0,0,0,6.2036-4.8755,10.1514,10.1514,0,0,0,2.4676-6.5959c-.0007-.25.0022-.5.0022-.75q0-36.6673.027-73.3345a11.8048,11.8048,0,0,0-5.6423-10.4308,38.3012,38.3012,0,0,0-3.4087-1.8655c-.3846-.205-.787-.3765-1.5007-.7146h1.81c15.3468,0,30.6937-.0258,46.04.0143a67.4033,67.4033,0,0,1,15.4516,1.7235c5.7031,1.3549,11.0507,3.4826,15.4986,7.444a20.61,20.61,0,0,1,7.1329,15.4491,16.9614,16.9614,0,0,1-3.0551,9.71,33.0184,33.0184,0,0,1-7.6568,8.1587,44.5591,44.5591,0,0,1-11.2862,6.4206q-.5575.2169-1.1057.4571A1.508,1.508,0,0,0,661.0481,51.1949Z"/><path d="M198.009,50.5165A64.717,64.717,0,0,1,194.98,71.9318c-4.7321,14.1727-14.4136,23.1666-28.6749,27.2962a60.8311,60.8311,0,0,1-22.2562,1.9358,52.4471,52.4471,0,0,1-17.62-4.4419A39.3619,39.3619,0,0,1,105.5641,74.47a58.4715,58.4715,0,0,1-3.6595-16.607,82.591,82.591,0,0,1,.0654-14.8143c.76-7.8843,2.684-15.4279,6.8128-22.29A39.3518,39.3518,0,0,1,130.3749,3.6106,57.4373,57.4373,0,0,1,148.4618.5774a61.1056,61.1056,0,0,1,17.927,2.1453c11.4457,3.2751,20.2959,9.8375,25.8489,20.5309a50.2257,50.2257,0,0,1,4.7657,14.6021A66.2666,66.2666,0,0,1,198.009,50.5165Zm-76.4842.2544c.152,2.7417.262,5.4866.4647,8.2246a63.88,63.88,0,0,0,3.6065,17.24,37.3148,37.3148,0,0,0,8.7912,14.2983,21.5565,21.5565,0,0,0,29.1652,1.5252,31.8165,31.8165,0,0,0,8.8993-11.8927c4.4772-9.7434,5.73-20.1047,5.6017-30.6807a101.7583,101.7583,0,0,0-.821-10.743,55.7767,55.7767,0,0,0-4.6864-16.9581,32.0339,32.0339,0,0,0-9.5337-12.5083,21.0917,21.0917,0,0,0-16.4939-4.2569A22.5043,22.5043,0,0,0,132.7862,12.91a39.7333,39.7333,0,0,0-7.8014,14.3788A78.4554,78.4554,0,0,0,121.5248,50.7709Z"/><path d="M747.5281.585a55.639,55.639,0,0,1,21.9776,3.908c11.8938,4.8578,19.6306,13.57,23.5946,25.71a62.5012,62.5012,0,0,1,2.7617,15.1325,77.6272,77.6272,0,0,1-.6763,17.3257c-1.464,9.477-4.8364,18.1115-11.5347,25.1976a40.8343,40.8343,0,0,1-16.6847,10.5255,59.07,59.07,0,0,1-21.2366,2.9979,55.5453,55.5453,0,0,1-19.4336-3.8548c-11.5749-4.6947-19.2739-13.0635-23.3881-24.7846A61.8526,61.8526,0,0,1,699.797,56.77a80.0186,80.0186,0,0,1,.3737-15.7,50.0348,50.0348,0,0,1,7.1647-21.2394c5.2166-8.182,12.6579-13.4467,21.77-16.4863A57.0878,57.0878,0,0,1,747.5281.585Zm-27.94,50.2827a83.1613,83.1613,0,0,0,.9415,13.1391,59.6943,59.6943,0,0,0,4.442,15.7989,33.7174,33.7174,0,0,0,9.0535,12.5094,21.0349,21.0349,0,0,0,13.3007,5.096c6.7138.1309,12.207-2.5858,16.7352-7.389a38.9135,38.9135,0,0,0,8.1284-14.0227,71.8672,71.8672,0,0,0,3.7537-20.3975,90.9922,90.9922,0,0,0-.4736-15.1083,63.9742,63.9742,0,0,0-4.2877-17.3815,33.9762,33.9762,0,0,0-9.3958-13.5257c-5.76-4.8011-12.3146-6.4177-19.6064-4.48-5.07,1.3475-8.98,4.464-12.2137,8.4946a41.0965,41.0965,0,0,0-6.7385,12.7874A76.9076,76.9076,0,0,0,719.588,50.8677Z"/><path d="M815.8365,22.3234c0,.7328.0019,1.4656,0,2.1983q-.063,22.3429-.1278,44.6858c-.0186,6.0982.0131,12.1975-.0965,18.2941a11.0628,11.0628,0,0,0,4.2709,9.1509,47.9009,47.9009,0,0,0,4.4643,2.9937c.404.263.85.461,1.5819.8514h-27.386l-.0541-.1854c.5237-.262,1.0533-.5127,1.57-.7879a18.3162,18.3162,0,0,0,6.2552-5.0308,10.3046,10.3046,0,0,0,2.1579-6.3982q-.0321-37.27.006-74.54a10.7008,10.7008,0,0,0-4.702-9.2038,38.765,38.765,0,0,0-4.7179-2.5637,9.2379,9.2379,0,0,0-1.1221-.4146h26.3507c17.8966,20.6042,35.6347,41.1036,53.418,61.5635l.3147-.1288q0-.792,0-1.5841,0-23.6968.0146-47.3937a11.633,11.633,0,0,0-4.7827-9.6848,21.5966,21.5966,0,0,0-5.9384-3.1383h27.9628c-.6744.304-1.1953.5363-1.7141.7731a16.6037,16.6037,0,0,0-5.2756,3.6329,10.7781,10.7781,0,0,0-3.1056,7.7041q.0378,42.8943.0149,85.7887v1.7362l-.2694.113L816.1834,22.2Z"/><path d="M518.0587,1h67.5626l4.363,15.0769c-.9573-1.0306-1.7813-2-2.6907-2.882A23.3246,23.3246,0,0,0,576.0692,7.52a60.1651,60.1651,0,0,0-11.7144-1.5438c-4.3427-.1615-8.6881-.25-13.0325-.3651-.5438-.0145-1.0884-.002-1.6019-.002-.3412,1.1308-.468,36.1105-.1611,38.6165a3.085,3.085,0,0,0,.6747.1528c3.6478.0266,7.2962.089,10.9433.0459a23.246,23.246,0,0,0,15.3145-5.5217,3.053,3.053,0,0,1,.4672-.255V56.9325a7.5282,7.5282,0,0,1-.8647-.5527,21.19,21.19,0,0,0-11.2636-4.819c-4.1841-.5823-8.3822-.2707-12.5758-.2722-.8858,0-1.7717,0-2.7345,0v44.289a2.4745,2.4745,0,0,0,.5656.14c8.2056.0211,16.3838-.3129,24.4322-2.0944a33.4678,33.4678,0,0,0,11.8511-4.8359,23.0155,23.0155,0,0,0,4.7433-4.3339c.2719-.3272.56-.641.9507-1.0869-1.6943,5.8134-3.3345,11.4409-4.993,17.1317H518.2719c1.1393-.6332,2.0173-1.0849,2.859-1.5962a17.4684,17.4684,0,0,0,5.5374-4.9663,10.4311,10.4311,0,0,0,1.8986-6.0429q-.019-37.1944.0021-74.3889a11.2294,11.2294,0,0,0-4.1147-8.64A23.3893,23.3893,0,0,0,518.0587,1Z"/><path d="M389.1869,4.1226c1.3637,4.9293,2.7573,9.9662,4.1508,15.0031l-.2609.1487c-.2554-.3034-.5263-.5951-.7638-.912a33.7637,33.7637,0,0,0-20.4545-13.15c-9.3461-2.0369-17.1436.705-23.5763,7.6222-4.92,5.2909-7.7955,11.6786-9.63,18.561a76.5519,76.5519,0,0,0-2.2406,24.6564,68.762,68.762,0,0,0,3.386,18.0459A40.3489,40.3489,0,0,0,348.5154,89.15a23.7679,23.7679,0,0,0,14.3827,7.6761,27.5791,27.5791,0,0,0,10.9756-.9851A33.7478,33.7478,0,0,0,392.2167,83.32a4.4708,4.4708,0,0,1,.9437-.9811c-1.1073,5.1584-2.6739,10.1755-4.0243,15.2673a65.5457,65.5457,0,0,1-8.44,2.2761,79.2814,79.2814,0,0,1-18.6428,1.251,77.0551,77.0551,0,0,1-16.9014-2.1659,43.354,43.354,0,0,1-15.6832-7.21c-6.6387-4.9792-10.8219-11.6514-13.2829-19.4756a66.0939,66.0939,0,0,1-2.8336-18.7469,86.59,86.59,0,0,1,.9843-16.2834,48.83,48.83,0,0,1,6.1416-17.4047A36.7875,36.7875,0,0,1,339.1283,4.5393a61.2213,61.2213,0,0,1,15.7-3.6565A109.5829,109.5829,0,0,1,369.943.3492,60.722,60.722,0,0,1,388.3013,3.62a4.9149,4.9149,0,0,1,.55.2269A2.43,2.43,0,0,1,389.1869,4.1226Z"/><path d="M271.58,147.5862a6.8509,6.8509,0,0,1,2.0781.3188,5.0932,5.0932,0,0,1,1.7851.9817,4.7738,4.7738,0,0,1,1.2368,1.6576,5.5535,5.5535,0,0,1,.4589,2.3458,6.5929,6.5929,0,0,1-.4589,2.601,4.8143,4.8143,0,0,1-1.2241,1.747,4.712,4.712,0,0,1-1.7723.9817,7.2021,7.2021,0,0,1-2.1036.3059h-8.2875v8.1855h-2.7541v-19.125Zm-8.2875,2.7539v5.4317H271.58a3.4561,3.4561,0,0,0,1.53-.2807,2.1178,2.1178,0,0,0,.8414-.7011,2.2557,2.2557,0,0,0,.357-.9181,6.2766,6.2766,0,0,0,.0766-.9563,2.5663,2.5663,0,0,0-.7014-1.836,2.769,2.769,0,0,0-2.1036-.7395Z"/><path d="M302.2535,166.7112h-3.1111l-2.7284-6.2985h-8.5425l-2.8305,6.2985h-3.009l8.6445-19.125h3.06Zm-10.0981-15.7081-3.0089,6.6557h6.018Z"/><path d="M320.7827,147.5862a8.177,8.177,0,0,1,2.2313.3059,5.4792,5.4792,0,0,1,1.9125.9562,4.782,4.782,0,0,1,1.3387,1.696,5.6531,5.6531,0,0,1,.51,2.4991,6.4774,6.4774,0,0,1-.459,2.6009,5.24,5.24,0,0,1-1.1347,1.6957,4.3436,4.3436,0,0,1-1.4281.9434,4.9192,4.9192,0,0,1-1.3642.3442l3.9526,8.0836h-3.1365L319.38,158.73h-7.1146v7.9816h-2.7539v-19.125Zm-8.517,2.7539v5.6356h8.517a3.44,3.44,0,0,0,2.3971-.765,2.78,2.78,0,0,0,.8414-2.1673,2.82,2.82,0,0,0-.2805-1.3389,2.26,2.26,0,0,0-.74-.8288,2.85,2.85,0,0,0-1.0455-.4207,6.0991,6.0991,0,0,0-1.173-.1149Z"/><path d="M337.7566,147.5862v19.125h-2.7541v-19.125Z"/><path d="M347.4629,161.3818q.4841.3313,1.0965.8414a8.4971,8.4971,0,0,0,1.5172.9818,11.0432,11.0432,0,0,0,2.1421.8159,11.1775,11.1775,0,0,0,2.9707.3442,12.3893,12.3893,0,0,0,2.04-.1784,8.3256,8.3256,0,0,0,1.9764-.5736,4.57,4.57,0,0,0,1.4917-1.0072,2.0921,2.0921,0,0,0,.5865-1.5047,2.5448,2.5448,0,0,0-.5993-1.8106,3.5125,3.5125,0,0,0-1.5044-.9307,7.5173,7.5173,0,0,0-1.9509-.3443q-1.0458-.0506-1.938-.051h-2.856a7.3363,7.3363,0,0,1-1.9762-.28,5.7153,5.7153,0,0,1-1.8233-.8672,4.62,4.62,0,0,1-1.3387-1.517,4.9374,4.9374,0,0,1,.255-4.8706,6.544,6.544,0,0,1,1.9635-1.836,9.0056,9.0056,0,0,1,2.6137-1.0711,11.7465,11.7465,0,0,1,2.7541-.3443,12.0968,12.0968,0,0,1,2.9325.3317,14.902,14.902,0,0,1,2.3206.7649,10.7462,10.7462,0,0,1,1.6447.8669q.65.4342.9308.6375l-1.5556,2.2187q-.6122-.3569-1.2112-.7269a9.4055,9.4055,0,0,0-1.3-.663,9.1255,9.1255,0,0,0-1.5938-.4846,10.0881,10.0881,0,0,0-2.091-.191,10.3123,10.3123,0,0,0-1.8616.1784,7.2535,7.2535,0,0,0-1.7594.5482,3.7838,3.7838,0,0,0-1.3.9691,2.1479,2.1479,0,0,0-.51,1.4408q0,2.1934,3.2639,2.1929h2.5245a20.2818,20.2818,0,0,1,3.2514.2549,8.9933,8.9933,0,0,1,2.7921.9053,5.1333,5.1333,0,0,1,1.9508,1.785,5.33,5.33,0,0,1,.7268,2.92,4.6615,4.6615,0,0,1-.74,2.6264,6.1078,6.1078,0,0,1-1.9889,1.8744,9.7022,9.7022,0,0,1-2.8815,1.1221,15.4491,15.4491,0,0,1-3.4171.37,13.9061,13.9061,0,0,1-3.7484-.4464,13.368,13.368,0,0,1-2.7158-1.0583,9.3023,9.3023,0,0,1-1.8615-1.275q-.7266-.6625-1.16-1.0962Z"/><path d="M393.4406,147.5862a9.71,9.71,0,0,1,4.2966.8669,8.685,8.685,0,0,1,2.9072,2.2313,8.8164,8.8164,0,0,1,1.6574,3.0474,11.1447,11.1447,0,0,1,.5227,3.315,10.1014,10.1014,0,0,1-.7012,3.774,9.5271,9.5271,0,0,1-1.9508,3.0727,9.0535,9.0535,0,0,1-2.9707,2.0654,9.2851,9.2851,0,0,1-3.7612.7523H384.643v-19.125Zm-6.0435,2.7539v13.6172h6.0435a6.318,6.318,0,0,0,3.0216-.6759,6.4682,6.4682,0,0,0,2.0656-1.6957,6.7762,6.7762,0,0,0,1.1731-2.2312,7.8388,7.8388,0,0,0,.37-2.2822,7.3583,7.3583,0,0,0-.4973-2.7668,6.2494,6.2494,0,0,0-1.377-2.1164,6.1533,6.1533,0,0,0-2.091-1.3644,7.1169,7.1169,0,0,0-2.6647-.4846Z"/><path d="M426.9385,147.5862V150.34H414.0354v5.0236h6.5026v2.7542h-6.5026v5.8394h13.3875v2.7539H411.2813v-19.125Z"/><path d="M447.01,147.5862a6.8515,6.8515,0,0,1,2.0782.3188,5.0927,5.0927,0,0,1,1.785.9817,4.7738,4.7738,0,0,1,1.2368,1.6576,5.5535,5.5535,0,0,1,.4589,2.3458,6.5929,6.5929,0,0,1-.4589,2.601,4.8153,4.8153,0,0,1-1.224,1.747,4.7127,4.7127,0,0,1-1.7723.9817,7.2028,7.2028,0,0,1-2.1037.3059h-8.2875v8.1855h-2.754v-19.125Zm-8.2875,2.7539v5.4317H447.01a3.4558,3.4558,0,0,0,1.53-.2807,2.1178,2.1178,0,0,0,.8414-.7011,2.2543,2.2543,0,0,0,.357-.9181,6.2766,6.2766,0,0,0,.0766-.9563,2.5666,2.5666,0,0,0-.7013-1.836,2.7693,2.7693,0,0,0-2.1037-.7395Z"/><path d="M477.9065,159.4948a11.9034,11.9034,0,0,1-.3187,2.7156,5.87,5.87,0,0,1-1.2369,2.4609,6.4662,6.4662,0,0,1-2.5626,1.7722,13.836,13.836,0,0,1-8.5426,0,6.4659,6.4659,0,0,1-2.5627-1.7722,5.863,5.863,0,0,1-1.2368-2.4609,11.8867,11.8867,0,0,1-.3187-2.7156V147.5862h2.754v11.9086a7.0183,7.0183,0,0,0,.2551,1.938,3.5611,3.5611,0,0,0,.8923,1.5428,4.3076,4.3076,0,0,0,1.7214,1.02,10.5373,10.5373,0,0,0,5.5334,0,4.3132,4.3132,0,0,0,1.7214-1.02,3.5729,3.5729,0,0,0,.8923-1.5428,7.0412,7.0412,0,0,0,.2549-1.938V147.5862h2.7542Z"/><path d="M491.132,147.5862v19.125h-2.7539v-19.125Z"/><path d="M500.8384,161.3818q.4838.3313,1.0965.8414a8.4986,8.4986,0,0,0,1.517.9818,11.0568,11.0568,0,0,0,2.1422.8159,11.1775,11.1775,0,0,0,2.9707.3442,12.39,12.39,0,0,0,2.04-.1784,8.3288,8.3288,0,0,0,1.9763-.5736,4.5707,4.5707,0,0,0,1.4918-1.0072,2.0922,2.0922,0,0,0,.5866-1.5047,2.5444,2.5444,0,0,0-.6-1.8106,3.5122,3.5122,0,0,0-1.5043-.9307,7.52,7.52,0,0,0-1.9509-.3443q-1.046-.0506-1.938-.051h-2.8559a7.3359,7.3359,0,0,1-1.9763-.28,5.7138,5.7138,0,0,1-1.8232-.8672,4.6209,4.6209,0,0,1-1.3389-1.517,4.9368,4.9368,0,0,1,.2552-4.8706,6.5393,6.5393,0,0,1,1.9635-1.836,9.0016,9.0016,0,0,1,2.6136-1.0711,11.7466,11.7466,0,0,1,2.7542-.3443,12.0963,12.0963,0,0,1,2.9323.3317,14.8879,14.8879,0,0,1,2.3206.7649,10.7462,10.7462,0,0,1,1.6447.8669q.65.4342.9308.6375l-1.5557,2.2187q-.6117-.3569-1.2111-.7269a9.4,9.4,0,0,0-1.3005-.663,9.1323,9.1323,0,0,0-1.5937-.4846,10.09,10.09,0,0,0-2.091-.191,10.3078,10.3078,0,0,0-1.8615.1784,7.2523,7.2523,0,0,0-1.76.5482,3.7844,3.7844,0,0,0-1.3.9691,2.147,2.147,0,0,0-.51,1.4408q0,2.1934,3.264,2.1929h2.5245a20.2814,20.2814,0,0,1,3.2513.2549,8.998,8.998,0,0,1,2.7923.9053,5.1349,5.1349,0,0,1,1.9506,1.785,5.3289,5.3289,0,0,1,.7269,2.92,4.6622,4.6622,0,0,1-.74,2.6264,6.1092,6.1092,0,0,1-1.989,1.8744,9.7039,9.7039,0,0,1-2.8816,1.1221,15.4473,15.4473,0,0,1-3.4169.37,13.9059,13.9059,0,0,1-3.7485-.4464,13.3587,13.3587,0,0,1-2.7158-1.0583,9.2975,9.2975,0,0,1-1.8616-1.275q-.7267-.6625-1.16-1.0962Z"/><path d="M545.6389,166.7112h-2.64v-19.56h2.64Z"/><path d="M579.8386,161.7012a4.1787,4.1787,0,0,1-.7049,2.3551,5.865,5.865,0,0,1-2.0552,1.83,11.6646,11.6646,0,0,1-3.3,1.1851,21.2134,21.2134,0,0,1-4.44.42,24.2174,24.2174,0,0,1-4.4549-.375,11.4131,11.4131,0,0,1-3.39-1.14,6.0007,6.0007,0,0,1-2.1451-1.875,4.5479,4.5479,0,0,1-.75-2.61,4.357,4.357,0,0,1,.36-1.8149,4.8436,4.8436,0,0,1,.9448-1.3949,6.7415,6.7415,0,0,1,1.29-1.035,8.714,8.714,0,0,1,1.3949-.7052q-.27-.2091-.7049-.57a5.78,5.78,0,0,1-.84-.87,4.8683,4.8683,0,0,1-.69-1.215,4.3363,4.3363,0,0,1-.2848-1.635,4.123,4.123,0,0,1,.78-2.58,5.4375,5.4375,0,0,1,2.07-1.62,10.5658,10.5658,0,0,1,2.97-.84,24.3808,24.3808,0,0,1,3.45-.24q.81,0,1.785.06a14.2923,14.2923,0,0,1,1.9951.27,12.7582,12.7582,0,0,1,1.965.57,6.261,6.261,0,0,1,1.6948.96,4.5227,4.5227,0,0,1,1.2,1.47,4.4542,4.4542,0,0,1,.45,2.07,4.14,4.14,0,0,1-.2848,1.59,4.6846,4.6846,0,0,1-.69,1.1851,5.9613,5.9613,0,0,1-.825.84q-.42.3454-.72.5549.57.3006,1.26.72a6.5251,6.5251,0,0,1,1.275,1.02,5.4094,5.4094,0,0,1,.99,1.44A4.5183,4.5183,0,0,1,579.8386,161.7012Zm-10.41,3.15a23.0854,23.0854,0,0,0,3.6152-.24,9.0378,9.0378,0,0,0,2.4-.675,3.3156,3.3156,0,0,0,1.3348-1.035,2.2054,2.2054,0,0,0,.42-1.29,2.5105,2.5105,0,0,0-.57-1.65,4.0849,4.0849,0,0,0-1.6049-1.125,9.8417,9.8417,0,0,0-2.49-.63,24.1541,24.1541,0,0,0-3.1951-.1951,21.8856,21.8856,0,0,0-2.94.1951,11.9066,11.9066,0,0,0-2.5951.63,5.4057,5.4057,0,0,0-1.86,1.11,2.1469,2.1469,0,0,0-.7051,1.6049q0,1.44,2.0551,2.37A15.5413,15.5413,0,0,0,569.4285,164.8512Zm-.09-9.48a13.8456,13.8456,0,0,0,3.1649-.3,6.96,6.96,0,0,0,1.98-.75,2.748,2.748,0,0,0,1.02-.975,2.0656,2.0656,0,0,0,.2851-.975,1.748,1.748,0,0,0-.48-1.215,3.6068,3.6068,0,0,0-1.3351-.87,8.7186,8.7186,0,0,0-2.07-.51,19.858,19.858,0,0,0-2.6549-.165,17.8852,17.8852,0,0,0-3.1049.225,8.2532,8.2532,0,0,0-2.01.5851,2.6677,2.6677,0,0,0-1.0951.84,1.6843,1.6843,0,0,0-.33.96,2.0479,2.0479,0,0,0,.4948,1.3649,3.7426,3.7426,0,0,0,1.38.975,9.0123,9.0123,0,0,0,2.1.6A15.61,15.61,0,0,0,569.3386,155.3713Z"/><path d="M591.1785,155.7313q1.77-.6,3.5851-1.0652a14.7593,14.7593,0,0,1,3.675-.4649,13.6932,13.6932,0,0,1,4.1548.57,9.6084,9.6084,0,0,1,2.97,1.485,5.9951,5.9951,0,0,1,1.77,2.115,5.5561,5.5561,0,0,1,.585,2.46,4.9313,4.9313,0,0,1-.69,2.49,6.6811,6.6811,0,0,1-2.025,2.13,10.9538,10.9538,0,0,1-3.2851,1.485,16.3726,16.3726,0,0,1-4.47.5549,16.8069,16.8069,0,0,1-5.1448-.81,23.633,23.633,0,0,1-4.7851-2.13l1.56-2.16q.6.33,1.425.75a18.2406,18.2406,0,0,0,1.86.81,14.7137,14.7137,0,0,0,2.31.6451,14.3139,14.3139,0,0,0,2.8052.2549,14.5281,14.5281,0,0,0,2.5049-.24,11.1231,11.1231,0,0,0,2.535-.75,6.6013,6.6013,0,0,0,1.965-1.275,2.4689,2.4689,0,0,0,.7951-1.8451,2.649,2.649,0,0,0-.57-1.6649,4.5526,4.5526,0,0,0-1.515-1.23,8.2878,8.2878,0,0,0-2.19-.75,12.9369,12.9369,0,0,0-2.5951-.2552,15.092,15.092,0,0,0-2.3549.1652,13.9759,13.9759,0,0,0-1.95.45,13.7136,13.7136,0,0,0-1.8.7049q-.8854.4206-1.9649.93l-1.8-1.56v-10.08h17.91v2.64h-15.27Z"/><path d="M637.6782,161.7012a4.1779,4.1779,0,0,1-.7049,2.3551,5.8647,5.8647,0,0,1-2.0551,1.83,11.6646,11.6646,0,0,1-3.3,1.1851,21.2137,21.2137,0,0,1-4.44.42,24.2181,24.2181,0,0,1-4.4549-.375,11.4134,11.4134,0,0,1-3.39-1.14,6,6,0,0,1-2.1451-1.875,4.5479,4.5479,0,0,1-.75-2.61,4.3586,4.3586,0,0,1,.36-1.8149,4.8439,4.8439,0,0,1,.9449-1.3949,6.7415,6.7415,0,0,1,1.29-1.035,8.7132,8.7132,0,0,1,1.3948-.7052q-.27-.2091-.7049-.57a5.7792,5.7792,0,0,1-.84-.87,4.8683,4.8683,0,0,1-.69-1.215,4.3343,4.3343,0,0,1-.2848-1.635,4.123,4.123,0,0,1,.78-2.58,5.4367,5.4367,0,0,1,2.07-1.62,10.566,10.566,0,0,1,2.97-.84,24.3808,24.3808,0,0,1,3.45-.24q.81,0,1.7851.06a14.2943,14.2943,0,0,1,1.9951.27,12.7538,12.7538,0,0,1,1.9649.57,6.2616,6.2616,0,0,1,1.6949.96,4.5227,4.5227,0,0,1,1.2,1.47,4.4542,4.4542,0,0,1,.45,2.07,4.1413,4.1413,0,0,1-.2848,1.59,4.6846,4.6846,0,0,1-.69,1.1851,5.9722,5.9722,0,0,1-.825.84q-.42.3454-.72.5549.57.3006,1.26.72a6.5251,6.5251,0,0,1,1.275,1.02,5.4114,5.4114,0,0,1,.99,1.44A4.5169,4.5169,0,0,1,637.6782,161.7012Zm-10.41,3.15a23.0854,23.0854,0,0,0,3.6152-.24,9.04,9.04,0,0,0,2.4-.675,3.3156,3.3156,0,0,0,1.3348-1.035,2.2061,2.2061,0,0,0,.42-1.29,2.5111,2.5111,0,0,0-.57-1.65,4.0856,4.0856,0,0,0-1.6049-1.125,9.8426,9.8426,0,0,0-2.49-.63,24.1531,24.1531,0,0,0-3.1951-.1951,21.883,21.883,0,0,0-2.94.1951,11.9052,11.9052,0,0,0-2.5951.63,5.4038,5.4038,0,0,0-1.86,1.11,2.147,2.147,0,0,0-.7052,1.6049q0,1.44,2.0552,2.37A15.5407,15.5407,0,0,0,627.2682,164.8512Zm-.09-9.48a13.846,13.846,0,0,0,3.165-.3,6.96,6.96,0,0,0,1.98-.75,2.7483,2.7483,0,0,0,1.02-.975,2.0653,2.0653,0,0,0,.285-.975,1.7476,1.7476,0,0,0-.48-1.215,3.6063,3.6063,0,0,0-1.335-.87,8.72,8.72,0,0,0-2.07-.51,19.859,19.859,0,0,0-2.6549-.165,17.8844,17.8844,0,0,0-3.1049.225,8.2541,8.2541,0,0,0-2.01.5851,2.6684,2.6684,0,0,0-1.0951.84,1.685,1.685,0,0,0-.33.96,2.0479,2.0479,0,0,0,.4949,1.3649,3.7421,3.7421,0,0,0,1.38.975,9.0152,9.0152,0,0,0,2.1.6A15.6113,15.6113,0,0,0,627.1782,155.3713Z"/></g></g></svg>