<svg width="2634" height="1189" viewBox="0 0 2634 1189" fill="none" xmlns="http://www.w3.org/2000/svg">
<path d="M1229.22 594.512V433.887C1229.22 412.405 1241.41 400.321 1262.94 400.321C1303.38 400.321 1343.83 400.321 1384.3 400.321C1429.15 400.321 1467.67 416.045 1498.96 448.01C1524.09 473.568 1540.05 506.654 1544.38 542.15C1545.66 552.366 1546.24 562.658 1546.12 572.953C1546.12 633.578 1546.12 694.212 1546.12 754.854C1546.12 763.271 1544.83 771.327 1539.27 778.092C1536.74 781.511 1533.45 784.299 1529.66 786.239C1525.86 788.179 1521.67 789.217 1517.4 789.272C1498.18 789.453 1478.98 789.272 1459.79 789.453C1458.72 789.595 1457.63 789.32 1456.76 788.685C1455.89 788.049 1455.3 787.103 1455.12 786.044C1440.99 745.06 1426.77 704.118 1412.47 663.219C1411.35 659.992 1412.24 658.83 1415.06 657.513C1425.73 652.804 1435.11 645.618 1442.41 636.556C1449.71 627.494 1454.71 616.821 1457.01 605.434C1465.88 567.092 1438.49 525.651 1399.47 518.757C1358.9 511.579 1322.81 534.533 1312.62 574.011C1304.58 605.176 1320.76 641.143 1349.79 655.344C1354.98 657.926 1355.81 660.095 1354.15 665.543C1342.22 705.099 1330.65 744.758 1319.18 784.443C1318.02 788.471 1316.33 789.607 1312.23 789.607C1295.58 789.349 1278.89 788.91 1262.27 789.607C1241.2 790.537 1228.96 773.806 1229.09 756.79C1229.35 702.594 1229.22 648.553 1229.22 594.512Z" fill="#0AA971"/>
<path d="M359.346 560.012C370.207 548.211 382.503 537.803 395.95 529.028C422.047 512.452 450.428 508.062 480.468 514.156C510.509 520.249 530.199 538.401 542.729 565.305C549.754 580.923 553.294 597.871 553.106 614.982C553.227 664.298 553.227 713.623 553.106 762.956C553.106 774.627 546.958 783.173 536.633 786.555C531.874 788.234 526.704 788.372 521.863 786.948C517.021 785.524 512.756 782.612 509.679 778.629C506.894 775.183 505.293 770.938 505.113 766.519C505.113 764.17 504.932 761.794 504.932 759.445C504.932 714.337 504.932 669.23 504.932 624.148C505.222 614.526 504.351 604.904 502.337 595.488C496.423 571.76 479.898 558.204 455.383 556.165C423.993 553.583 398.907 565.925 377.22 587.148C371.019 593.19 363.47 598.871 360.357 606.539C357.763 613.097 359.657 621.515 359.657 629.106C359.657 673.705 359.657 718.296 359.657 762.879C359.657 779.094 347.334 789.654 331.328 787.485C326.261 786.721 321.59 784.307 318.047 780.621C314.503 776.936 312.286 772.186 311.742 767.113C311.587 765.435 311.587 763.756 311.587 761.949C311.587 649.633 311.587 537.308 311.587 424.974C311.587 417.563 313.117 410.85 318.461 405.506C321.587 402.097 325.694 399.732 330.221 398.734C334.748 397.736 339.475 398.153 343.755 399.929C348.143 401.368 351.999 404.083 354.824 407.723C357.649 411.363 359.314 415.762 359.605 420.352C359.722 422.545 359.722 424.743 359.605 426.936V559.934L359.346 560.012Z" fill="#2D3261"/>
<path d="M758.854 666.97C729.618 666.97 700.381 666.97 671.145 666.97C666.579 666.97 666.164 668.054 666.709 672.134C672.26 713.007 701.056 740.169 742.589 744.068C771.981 746.831 800.102 742.958 826.848 730.228C832.27 727.646 837.925 725.607 844.022 726.975C852.453 728.86 858.601 733.714 860.521 742.312C861.563 746.296 861.274 750.51 859.697 754.316C858.119 758.122 855.34 761.313 851.778 763.407C833.128 775.893 811.909 784.071 789.673 787.342C764.458 790.879 739.19 791.112 714.208 785.405C670.107 775.258 639.288 749.258 625.668 706.138C612.049 663.019 613.45 618.971 633.192 577.375C651.844 537.999 683.986 516.104 727.802 511.663C753.484 509.081 778.414 511.663 801.71 523.334C826.648 535.52 846.346 556.233 857.2 581.687C865.303 600.12 869.641 619.973 869.963 640.091C870.353 657.855 861.558 666.944 843.503 666.97C815.278 667.004 787.062 667.004 758.854 666.97ZM744.171 628.24C768.79 628.24 793.461 628.24 818.08 628.24C821.426 628.24 822.412 627.465 822.023 624.005C818.598 591.705 803.215 567.718 771.877 556.486C741.006 545.435 712.6 551.038 688.604 573.812C675.036 586.721 668.68 603.246 666.812 621.604C666.164 628.162 666.19 628.162 672.805 628.162L744.171 628.24Z" fill="#2D3261"/>
<path d="M2272.87 749.861C2261.31 761.776 2247.53 771.328 2232.29 777.979C2202.8 790.244 2172.63 794.039 2141.34 784.873C2107.62 774.984 2085.96 744.594 2086.86 709.195C2087.75 675.81 2106.45 649.809 2138.41 637.106C2161.52 627.914 2185.7 625.539 2210.3 625.616C2229.34 625.616 2248.38 625.435 2267.37 625.745C2272.09 625.745 2273 624.325 2272.84 620.039C2272.77 610.41 2271.29 600.843 2268.46 591.637C2261.35 570.516 2244.88 561.118 2224.12 557.942C2195.02 553.475 2166.63 557.503 2138.83 566.437C2135.3 567.656 2131.68 568.589 2128.01 569.225C2123.48 570.1 2118.79 569.355 2114.77 567.12C2110.74 564.885 2107.64 561.305 2106.01 557.013C2104.23 552.577 2104.07 547.659 2105.57 543.122C2107.07 538.584 2110.13 534.717 2114.21 532.2C2127.18 524.893 2141.42 520.994 2155.71 517.379C2178.49 511.475 2202.11 509.492 2225.55 511.518C2261.61 514.771 2290.4 530.444 2308.56 562.486C2316.15 575.916 2320.35 590.978 2320.81 606.38C2322.36 657.684 2321.02 709.014 2321.53 760.344C2321.74 781.981 2303.53 790.424 2289.18 785.932C2284.63 784.469 2280.64 781.649 2277.75 777.853C2274.86 774.056 2273.21 769.468 2273.02 764.708C2272.71 760.267 2272.87 755.722 2272.87 749.861ZM2231.7 664.165C2219.87 664.449 2205.6 663.597 2191.38 665.275C2178.41 666.825 2165.62 669.019 2153.79 675.164C2128.55 688.307 2132.6 718.413 2144.35 732.097C2152.44 741.522 2163.18 744.826 2174.83 746.427C2213.62 751.772 2244.69 736.848 2271.18 709.97C2271.81 709.279 2272.29 708.459 2272.57 707.567C2272.85 706.675 2272.94 705.733 2272.82 704.806C2272.82 692.67 2272.66 680.509 2272.82 668.374C2272.82 664.656 2271.57 663.933 2268.15 663.984C2256.86 664.294 2245.47 664.165 2231.7 664.165V664.165Z" fill="#0AA971"/>
<path d="M1779.46 751.247C1769.78 758.993 1760.81 766.481 1750.46 772.058C1718.24 789.383 1684.25 795.451 1648.71 784.968C1585.96 766.584 1577.92 691.706 1615.46 656.049C1630.45 641.848 1648.66 634.205 1668.61 629.945C1684.76 626.786 1701.19 625.341 1717.64 625.633C1736.32 625.633 1755.02 625.633 1773.73 625.762C1778.09 625.762 1779.1 624.42 1778.92 620.289C1778.61 607.869 1777.26 595.734 1771.57 584.425C1764.1 569.527 1750.98 562.504 1735.49 559.018C1716.68 554.784 1697.72 555.868 1678.78 558.398C1665.4 560.607 1652.22 563.888 1639.38 568.21C1631.26 570.792 1623.65 570.611 1617.09 564.311C1607.36 554.938 1609.31 538.078 1621.22 531.804C1637.8 523.599 1655.53 517.899 1673.8 514.892C1698.99 510.167 1724.33 508.824 1749.63 514.375C1768.93 518.503 1786.51 528.366 1800.05 542.659C1813.59 556.952 1822.45 575.001 1825.46 594.417C1826.74 602.418 1827.38 610.508 1827.38 618.61C1827.38 666.584 1827.38 714.54 1827.38 762.479C1827.5 766.807 1826.46 771.09 1824.35 774.879C1822.24 778.668 1819.15 781.824 1815.4 784.017C1811.65 786.21 1807.37 787.36 1803.02 787.345C1798.67 787.331 1794.41 786.153 1790.67 783.935C1787.36 782.17 1784.58 779.571 1782.61 776.399C1780.63 773.226 1779.53 769.592 1779.41 765.861C1779.31 760.929 1779.46 756.101 1779.46 751.247ZM1779.28 686.697C1779.28 680.81 1779.05 674.898 1779.28 669.011C1779.49 665.164 1778.24 664.157 1774.43 664.208C1756.58 664.415 1738.76 664.337 1720.94 664.208C1705.33 663.789 1689.73 665.527 1674.6 669.372C1661.32 673.09 1648.97 678.745 1643.86 692.61C1636.34 713.008 1645.81 739.628 1674.14 745.231C1712.53 752.977 1744.54 740.48 1772.56 714.944C1777.33 710.581 1780.34 705.933 1779.31 699.143C1779.01 694.948 1779 690.738 1779.28 686.542V686.697Z" fill="#0AA971"/>
<path d="M1031.18 729.05L1051.93 679.424C1072.36 630.418 1092.77 581.36 1113.16 532.251C1113.8 530.701 1114.48 529.152 1115.28 527.655C1122.34 514.461 1134.4 509.581 1146.57 515.132C1158.74 520.683 1163.79 534.471 1158.4 547.768C1152.22 562.899 1145.84 577.952 1139.51 593.031C1098.51 690.836 1057.5 788.633 1016.5 886.422C1015.03 889.988 1013.29 893.44 1011.31 896.75C1008.64 901.432 1004.33 904.976 999.212 906.709C994.091 908.441 988.508 908.242 983.524 906.148C973.148 901.888 966.766 890.218 970.164 879.606C974.185 867.109 979.27 854.948 984.043 842.709C990.503 826.055 997.014 809.401 1003.71 792.851C1004.33 791.405 1004.63 789.845 1004.6 788.274C1004.57 786.703 1004.2 785.156 1003.53 783.736C971.167 705.709 938.887 627.664 906.684 549.602C901.496 537.389 903.156 527.19 910.991 519.676C923.78 507.386 943.366 512.473 950.604 530.004C962.693 559.491 974.6 589.054 986.585 618.566C1001.11 655.205 1015.98 691.611 1031.18 729.05Z" fill="#2D3261"/>
<path d="M1918.16 645.629C1918.16 618.105 1918.16 590.581 1918.16 563.005C1918.16 558.771 1917.02 557.557 1912.79 557.686C1902.59 557.996 1892.4 557.686 1882.2 557.686C1877.17 557.686 1873.1 556.344 1871.1 551.412C1869.1 546.481 1870.94 542.685 1874.55 539.174C1898.16 516.297 1921.66 493.343 1945.29 470.493C1949.29 466.645 1953.44 462.127 1959.9 464.89C1966.36 467.652 1966.36 473.23 1966.28 479.039C1966.13 490.013 1966.28 500.986 1966.13 511.959C1966.13 515.729 1967.09 516.839 1970.95 516.814C1989.63 516.624 2008.32 516.624 2027.01 516.814C2031.12 516.71 2035.15 517.925 2038.52 520.277C2041.88 522.629 2044.39 525.995 2045.69 529.878C2047.13 533.945 2047.28 538.352 2046.12 542.506C2044.97 546.661 2042.56 550.364 2039.23 553.116C2035.02 556.337 2029.77 557.908 2024.47 557.531C2006.8 557.531 1989.14 557.531 1971.44 557.531C1967.16 557.531 1966.26 558.719 1966.26 562.876C1966.41 613.38 1966.26 663.858 1966.41 714.336C1966.41 721.746 1966.8 729.182 1970.3 736.05C1972.04 739.552 1975 742.304 1978.63 743.796C1992.22 749.683 2006.08 748.831 2020.14 745.5C2023.02 744.821 2025.95 744.347 2028.9 744.08C2040.37 743.202 2048.54 748.495 2051.11 758.255C2052.18 762.921 2051.53 767.812 2049.28 772.042C2047.03 776.272 2043.34 779.561 2038.87 781.312C2021.57 788.992 2002.56 792.027 1983.71 790.117C1971.26 788.981 1959.17 786.735 1948.1 780.693C1930.82 771.243 1922.15 756.061 1919.17 737.212C1918.12 728.501 1917.76 719.721 1918.08 710.953C1918.1 689.179 1918.12 667.404 1918.16 645.629Z" fill="#0AA971"/>
</svg>
