<?xml version="1.0" encoding="utf-8"?>
<!-- Generator: Adobe Illustrator 19.0.0, SVG Export Plug-In . SVG Version: 6.00 Build 0)  -->
<svg version="1.1" id="layer" xmlns="http://www.w3.org/2000/svg" xmlns:xlink="http://www.w3.org/1999/xlink" x="0px" y="0px"
	 viewBox="-153 -46 652 652" style="enable-background:new -153 -46 652 652;" xml:space="preserve">
<path d="M-83,303.2h6.8v-56.7H-83V303.2z M-132,246.5v56.7h31.5V297h-24.7v-50.5L-132,246.5L-132,246.5z M421.1,302.8
	c1.6-3.9,8.9-22.2,11-27.5l11.3,27.5l0.6,1.4l0.6-1.4c2.1-4.9,22.8-54.9,23.1-55.4l0.4-0.9h-7.5l-16.8,42.7l-8.1-20.1l9.2-22.5h-6.7
	l-6.1,15.2l-6.3-15.2H419l9.6,22.5l-7.6,19.2l-17.3-41.7h-7.5l0.4,0.9c0.2,0.5,21.3,50.5,23.4,55.4l0.6,1.4L421.1,302.8L421.1,302.8
	z M364.4,251.3c12.4,0,22.9,10.8,22.9,23.5c0,12.8-10.5,23.5-22.9,23.5c-12.4,0-22.9-10.8-22.9-23.5
	C341.4,262.1,351.9,251.3,364.4,251.3L364.4,251.3z M364.4,304.5c7.9,0,15.4-3,21-8.6c5.6-5.6,8.8-13.1,8.8-21.1
	c0-8-3.1-15.5-8.8-21.1c-5.6-5.5-13.1-8.6-21-8.6c-8,0-15.4,3-21,8.6l0,0c-5.6,5.6-8.7,13.1-8.7,21.1c0,8,3.1,15.5,8.7,21.1
	C348.9,301.5,356.4,304.5,364.4,304.5L364.4,304.5z M301.6,252.7h6.7c3.5,0,6.3,0.9,8.3,2.6c2.2,1.9,3.3,4.6,3.3,8.1
	c0,3.2-1.3,6.1-3.5,8.1c-2.1,1.9-4.1,3-8,3h-6.7V252.7z M327,302.2c0,0-3.5-4.8-17.2-23.6c0.5,0,1,0,1.5-0.1
	c1.7-0.1,2.9-0.3,4.2-0.7c3.3-0.9,5.8-2.4,7.9-4.8c2.2-2.4,3.3-5.7,3.3-9.7c0-5.8-2-10.2-6-13.2c-3.2-2.4-7.6-3.7-12.3-3.7h-13.6
	v56.7h6.8v-25.9l17.7,25.6l0.2,0.3h8.2L327,302.2z M256.5,252.7h6.7c3.5,0,6.3,0.9,8.3,2.6c2.2,1.9,3.2,4.6,3.2,8.1
	c0,3.2-1.3,6.1-3.5,8.1c-2.1,1.9-4.1,3-8,3h-6.7V252.7z M281.9,302.2c0,0-3.5-4.8-17.2-23.6c0.5,0,1,0,1.5-0.1
	c1.7-0.1,2.9-0.3,4.2-0.7c3.3-0.9,5.8-2.4,7.9-4.8c2.2-2.4,3.2-5.7,3.2-9.7c0-5.8-2-10.2-6-13.2c-3.2-2.4-7.6-3.7-12.3-3.7h-13.6
	v56.7h6.8v-25.9c5.9,8.6,11.8,17.1,17.7,25.6l0.2,0.3h8.2L281.9,302.2L281.9,302.2z M160.5,276.8h17.8v-6.2h-17.8v-17.9h23.1v-6.2
	h-30v56.7h6.8L160.5,276.8L160.5,276.8z M211.4,259.7l9.1,18.6h-18.2L211.4,259.7L211.4,259.7z M239.6,302.3
	c-0.3-0.5-25.7-51.4-27.7-55.4l-0.6-1.1l-0.6,1.1c-2,4-27.3,54.9-27.6,55.4l-0.5,0.9h7l9.2-18.7h24.3l9.4,18.7h7.5L239.6,302.3
	L239.6,302.3z M76.3,259.7l9.1,18.6H67.2C67.2,278.3,76.3,259.7,76.3,259.7z M104.6,302.3c-0.3-0.5-25.7-51.4-27.7-55.4l-0.6-1.1
	l-0.6,1.1c-2,4-27.6,55.4-27.6,55.4l-0.5,0.9h7l9.2-18.7h24.3l9.3,18.7h7.5L104.6,302.3L104.6,302.3z M9.4,252.7h6.9
	c5.2,0,10.6,2.2,14.7,5.9c4.5,4.2,7,9.9,7,16.2c0,6.3-2.5,12.1-7,16.2c-4.1,3.8-9.5,5.9-14.7,5.9H9.4V252.7z M16.4,303.2
	c8.1,0,15.4-3.1,20.7-8.7c5-5.2,7.8-12.4,7.8-19.7c0-7.3-2.9-14.4-7.8-19.6c-5.3-5.6-12.7-8.7-20.7-8.7H2.6v56.7H16.4z M-13.9,304
	l-1.1-1.2c-3.4-3.8-30.5-34-36.3-40.5v41h-6.9v-57.6l1.1,1.2c3.5,3.8,30.6,34,36.4,40.5v-40.8h6.8V304z"/>
</svg>
