<svg xmlns:xlink="http://www.w3.org/1999/xlink" xmlns="http://www.w3.org/2000/svg" id="rabanne_micro" viewBox="0 0 510.24 88.94" width="500"  height="87.16" ><path d="M473.7,28c9.1,0,13.37,7.17,14.2,14.75h-29.09c1.65-9.79,6.48-14.75,14.89-14.75m.55,47.16c-9.93,0-15.17-5.93-15.99-19.3h50.19c1.1,0,1.79-.69,1.79-1.79-.69-24.54-13.51-39.71-36.68-39.71s-36.12,14.89-36.12,37.5,12.82,37.09,36.54,37.09c19.58,0,31.85-11.17,33.92-23.85,.27-1.24-.55-1.93-1.65-1.93h-16.27c-.97,0-1.79,.55-2.07,1.66-1.93,7.31-6.76,10.34-13.65,10.34m-90.94-18.2v-5.24c0-15.17,8-22.06,15.44-22.06,6.2,0,11.03,4.96,11.03,12.68v14.62l-.55,28.4c0,1.1,.69,1.79,1.79,1.79h17.37c1.1,0,1.79-.69,1.79-1.79l-.55-28.4v-14.89c0-17.37-9.51-27.58-24.54-27.58-9.93,0-18.06,4.41-22.89,10.62l.28-7.17c0-1.1-.55-1.79-1.65-1.79h-16.41c-1.1,0-1.79,.55-1.79,1.79l.55,35.16-.83,32.26c0,1.1,.69,1.79,1.79,1.79h17.65c1.1,0,1.79-.55,1.79-1.79l-.28-28.4Zm-77.98,0v-5.24c0-15.17,8-22.06,15.44-22.06,6.21,0,11.03,4.96,11.03,12.68v14.62l-.55,28.4c0,1.1,.69,1.79,1.79,1.79h17.37c1.1,0,1.79-.69,1.79-1.79l-.55-28.4v-14.89c0-17.37-9.51-27.58-24.54-27.58-9.93,0-18.06,4.41-22.89,10.62l.28-7.17c0-1.1-.55-1.79-1.65-1.79h-16.41c-1.1,0-1.79,.55-1.79,1.79l.55,35.16-.83,32.26c0,1.1,.69,1.79,1.79,1.79h17.65c1.1,0,1.79-.55,1.79-1.79l-.28-28.4Zm-67.86,17.65c-5.38,.14-9.24-2.9-9.24-7.72,0-6.2,4.55-8.82,11.44-10.06,5.38-.97,11.31-1.79,14.2-3.72v3.86c0,11.17-6.21,17.37-16.41,17.65m-5.51,14.2c9.93,0,17.51-3.45,23.03-10.48l-.28,7.03c0,1.1,.55,1.79,1.65,1.79h15.99c1.1,0,1.79-.55,1.79-1.79l-.41-27.58v-17.65c0-16.41-11.03-25.78-32.4-25.78-17.92,0-30.47,7.86-31.44,21.23-.14,1.1,.55,1.79,1.65,1.79h16.41c1.1,0,1.65-.55,1.93-1.65,1.1-3.72,5.24-5.93,12.27-5.93s11.44,2.62,11.44,6.62c0,5.79-7.72,6.89-17.37,8.41-13.1,2.07-28.68,5.52-28.68,23.99,0,12.68,10.75,19.99,24.4,19.99m-66.54-14.34c-9.93-.14-15.31-8.41-15.17-23.58,.14-14.61,5.51-22.06,15.58-22.06,9.93-.14,15.44,7.86,15.44,23.44,0,14.34-5.38,22.47-15.86,22.2m6.2-59.7c-8.82,0-15.99,3.45-20.82,9.51l.41-22.48c0-1.24-.69-1.79-1.79-1.79h-17.65c-1.1,0-1.79,.55-1.79,1.79l.83,37.1-.83,46.46c0,1.24,.69,1.79,1.79,1.79h17.51c1.1,0,1.65-.69,1.65-1.79l-.28-5.79c4.83,5.79,11.72,8.96,20.54,8.96,19.3,0,31.16-16.54,31.16-37.09s-10.62-36.68-30.75-36.68m-88.42,59.84c-5.38,.14-9.24-2.9-9.24-7.72,0-6.2,4.55-8.82,11.44-10.06,5.38-.97,11.31-1.79,14.2-3.72v3.86c0,11.17-6.2,17.37-16.41,17.65m-5.51,14.2c9.93,0,17.51-3.45,23.03-10.48l-.28,7.03c0,1.1,.55,1.79,1.65,1.79h15.99c1.1,0,1.79-.55,1.79-1.79l-.41-27.58v-17.65c0-16.41-11.03-25.78-32.4-25.78-17.92,0-30.47,7.86-31.44,21.23-.14,1.1,.55,1.79,1.65,1.79h16.41c1.1,0,1.65-.55,1.93-1.65,1.1-3.72,5.24-5.93,12.27-5.93s11.44,2.62,11.44,6.62c0,5.79-7.72,6.89-17.37,8.41-13.1,2.07-28.68,5.52-28.68,23.99,0,12.68,10.75,19.99,24.4,19.99M20.82,55.57c-.14-16.27,10.75-24.4,25.37-24.4,.69,0,1.38,0,1.93,.14,1.24,0,1.93-.69,1.93-1.79v-11.72c0-1.1-.55-1.79-1.65-1.93-.83-.14-1.79-.28-2.76-.28-10.34,0-19.85,4.14-25.37,12.55l.41-10.2c0-1.1-.55-1.79-1.65-1.79H1.79c-1.1,0-1.79,.69-1.79,1.79L.69,51.58l-.69,33.78c0,1.1,.69,1.79,1.79,1.79H19.3c1.1,0,1.79-.55,1.79-1.79l-.28-29.78Z"/></svg>