<svg width="212" height="24" viewBox="0 0 212 24" fill="none" xmlns="http://www.w3.org/2000/svg">
<path d="M74.8651 10.9881H63.9882L63.9613 11.1521L63.9343 11.3293L63.908 11.6298L63.881 11.8071L63.8672 11.971H74.8651V23.1067H78.0343V17.8935H78.0073V6.07542H78.0343V0.179688H74.8651V10.9883V10.9881Z" fill="#750016"/>
<path d="M94.3024 10.9883H88.0714L91.1872 3.74174L94.3024 10.9883ZM92.9594 0.179688H89.8711L90.8107 1.76272L86.8365 10.9883H81.5186L81.4515 11.1522L81.3843 11.3295L81.2769 11.63L81.2097 11.8072L81.1426 11.9711H86.4065L81.7067 22.8747L81.5995 23.1069H82.8615L87.6553 11.9711H94.7185L99.4585 23.0112L99.4993 23.1069H102.816L92.9997 0.275509L92.9595 0.179842L92.9594 0.179688Z" fill="#750016"/>
<path d="M109.042 0.179688H105.443L106.41 1.79012V23.1069H107.511V3.14094L123.666 23.0386L123.706 23.1069H125.035V19.941L109.082 0.234026L109.042 0.179842L109.042 0.179688Z" fill="#750016"/>
<path d="M132.718 1.16269H137.565C143.138 1.16269 146.737 5.27074 146.737 11.6434C146.737 18.0028 143.138 22.1242 137.565 22.1242H132.718V1.16269ZM137.982 0.179839H128.582L129.562 1.81767V23.1069H137.982C144.843 23.1069 150.027 18.1807 150.027 11.6433C150.027 5.10665 144.843 0.179839 137.982 0.179839Z" fill="#750016"/>
<path d="M157.488 0.179688H154.318V23.1067H169.52V22.1239H157.488V0.179688Z" fill="#750016"/>
<path d="M176.506 1.16254H189.034V0.179688H172.396L173.364 1.79012V23.1069H189.343V22.124H176.506V1.16254Z" fill="#750016"/>
<path d="M207.19 14.031H207.176C206.612 12.7069 205.9 11.9702 204.839 11.684C208.479 10.9333 210.466 8.96825 210.466 6.06133C210.466 2.48597 207.23 0.179688 202.234 0.179688H192.352L193.332 1.83083V23.1067H196.487V1.16177H201.697C205.229 1.16177 207.176 2.90859 207.176 6.08797C207.176 10.1417 204.195 10.9874 201.697 10.9874H198.555L198.542 11.1513L198.528 11.3286L198.488 11.629L198.474 11.8063L198.447 11.9702H201.724C202.435 11.9702 203.013 12.5162 203.51 13.6763L206.88 21.1543L206.961 21.2915C207.337 21.9739 207.954 23.1066 209.431 23.1066H211.915V22.7654C211.164 22.7654 208.693 17.6611 207.189 14.031" fill="#750016"/>
<path d="M178.589 11.3256L178.549 11.626L178.535 11.8033L178.508 11.9672H185.839V10.9844H178.616L178.602 11.1483L178.589 11.3256Z" fill="#750016"/>
<path d="M58.9221 1.78997V23.1067H62.0781V0.179688H57.9551L58.9221 1.78997Z" fill="#750016"/>
<path d="M125.155 4.43515V0H122.51L125.155 4.43515Z" fill="#750016"/>
<path d="M23.5928 0.179688H20.3835L12.354 13.6632L4.33704 0.261425L4.28372 0.179842H0L0.940081 1.76287V23.107H2.04078V2.37714L10.836 17.1565L10.8899 17.2387H11.5883L20.4374 2.37698V23.1069H24.5598L23.5928 21.4964V0.179688Z" fill="#750016"/>
<path d="M38.3986 12.0387L30.7311 0.247956L30.6772 0.179688H27.1328L35.6995 13.3079V23.1069H39.8359L38.8556 21.469V13.3079L47.248 0.438679L47.4092 0.179688H46.0932L38.3989 12.0387H38.3986Z" fill="#750016"/>
<path d="M51.0762 11.9925H56.8101V10.9688H51.4521L51.0762 11.9925Z" fill="#750016"/>
</svg>
