<svg width="237" height="321" viewBox="0 0 237 321" fill="#fff" xmlns="http://www.w3.org/2000/svg">
<path d="M162.863 223.383V96.8515H223.094V214.706H223.224L228.484 223.383H162.863ZM125.238 27.2899C134.046 23.3882 143.786 21.2204 154.022 21.2204C193.821 21.2204 225.219 47.4953 225.219 88.1663H160.562C159.159 62.6838 145.42 40.4355 125.238 27.2899M154.174 155.78H82.6705V92.5046H82.6923C82.6923 70.297 92.904 50.4254 108.891 37.3447C105.819 35.7276 102.459 34.7698 102.041 34.6504C87.1837 47.9939 77.4765 66.9566 76.3043 88.166H11.6909C13.9487 50.8754 45.0099 21.2201 82.8664 21.2201C90.0551 21.2201 96.9913 22.281 103.542 24.2751C103.599 24.2968 103.653 24.3075 103.708 24.3292C103.816 24.3644 103.938 24.3971 104.047 24.4296C109.108 25.9191 113.952 28.0003 118.432 30.7377C128.43 36.5157 136.902 44.6456 143.086 54.366C150.105 65.4004 154.175 78.4845 154.175 92.5043V155.78L154.174 155.78ZM154.174 227.721H154.164C154.164 254.077 139.8 277.14 118.478 289.474C118.467 289.484 118.456 289.484 118.446 289.496C97.0996 277.161 82.6926 254.102 82.6926 227.721H82.6708V164.457H154.175L154.174 227.721ZM82.8661 299.016C45.0096 299.016 13.9484 269.361 11.7016 232.059H76.315C77.7179 257.55 91.4577 279.79 111.629 292.947C102.82 296.856 93.0886 299.016 82.8661 299.016ZM73.9813 96.8512V223.382H13.7394V105.387L8.56712 96.8512H73.9813ZM118.432 23.323C108.88 18.2844 95.6747 14.7112 82.8661 14.7112C74.999 14.7112 67.3951 15.8833 60.2419 18.0755C77.0806 9.39858 97.0344 4.37103 118.421 4.37103C129.805 4.37103 140.785 5.79539 151.097 8.44622C154.571 8.37035 158.042 8.47866 161.504 8.79621C164.08 9.02688 166.633 9.37685 169.165 9.83819C153.9 3.53799 136.655 0 118.421 0C78.2663 0 42.9284 17.1883 22.8441 43.0533C17.7288 49.2638 13.5414 56.2747 10.5184 63.8665C7.49527 71.458 5.64196 79.6304 5.17228 88.166C5.09364 89.6014 5.05018 96.8864 5.05018 96.8864H0L5.05018 105.221C5.05018 105.221 5.17228 221.263 5.17228 232.059C5.17228 253.1 29.4466 320.236 118.421 320.236C137.29 320.236 155.094 316.457 170.763 309.763C163.96 311.209 157.002 311.92 150.055 312.086H150.023C140.02 314.538 129.412 315.865 118.421 315.865C96.9586 315.865 76.9068 310.813 60.0219 302.114C60.0219 302.114 60.0112 302.114 60.0112 302.104C59.9788 302.093 59.9571 302.071 59.9243 302.06C59.9678 302.071 60.0219 302.092 60.0653 302.104C60.0653 302.114 60.0761 302.114 60.0761 302.114C128.133 319.897 160.552 262.732 160.552 232.059H225.057C222.81 269.36 191.778 299.016 153.955 299.016C148.259 299.016 142.725 298.335 137.412 297.065C135.186 298.752 132.929 300.397 130.606 301.93C192.693 317.007 231.784 272.233 231.784 223.415H237L231.784 214.816V89.075C231.784 12.7873 148.107 5.09545 118.432 23.3227" fill="#fff"/>
</svg>
